<svg width="40" height="40" viewBox="0 0 40 40" fill="none" xmlns="http://www.w3.org/2000/svg">
<circle cx="20" cy="20" r="19.5" stroke="white"/>
<path d="M28.8125 25.3743H27.25V17.8384C27.2499 17.7089 27.223 17.5808 27.171 17.4622C27.119 17.3436 27.0429 17.2371 26.9477 17.1493L20.693 11.2438C20.5197 11.0863 20.2936 10.9993 20.0594 11C19.8252 11.0007 19.5997 11.0891 19.4273 11.2478L13.182 17.1454C13.0854 17.2332 13.0082 17.3402 12.9554 17.4595C12.9025 17.5788 12.8751 17.7079 12.875 17.8384V25.3743H11.3125C11.2296 25.3743 11.1501 25.4072 11.0915 25.4658C11.0329 25.5245 11 25.6039 11 25.6868C11 25.7697 11.0329 25.8492 11.0915 25.9078C11.1501 25.9664 11.2296 25.9993 11.3125 25.9993H28.8125C28.8954 25.9993 28.9749 25.9664 29.0335 25.9078C29.0921 25.8492 29.125 25.7697 29.125 25.6868C29.125 25.6039 29.0921 25.5245 29.0335 25.4658C28.9749 25.4072 28.8954 25.3743 28.8125 25.3743ZM13.5 17.8384C13.5005 17.7941 13.5102 17.7504 13.5285 17.71C13.5468 17.6697 13.5733 17.6336 13.6063 17.604L19.8516 11.7063C19.9088 11.6552 19.983 11.6269 20.0598 11.6269C20.1366 11.6269 20.2107 11.6552 20.268 11.7063L26.5227 17.611C26.5553 17.6407 26.5813 17.6769 26.5989 17.7173C26.6165 17.7577 26.6254 17.8013 26.625 17.8454V25.3743H22.25V21.3118C22.25 21.0632 22.1512 20.8247 21.9754 20.6489C21.7996 20.4731 21.5611 20.3743 21.3125 20.3743H18.8125C18.5639 20.3743 18.3254 20.4731 18.1496 20.6489C17.9738 20.8247 17.875 21.0632 17.875 21.3118V25.3743H13.5V17.8384ZM21.625 25.3743H18.5V21.3118C18.5 21.2289 18.5329 21.1495 18.5915 21.0908C18.6501 21.0322 18.7296 20.9993 18.8125 20.9993H21.3125C21.3954 20.9993 21.4749 21.0322 21.5335 21.0908C21.5921 21.1495 21.625 21.2289 21.625 21.3118V25.3743Z" fill="white"/>
</svg>
