<svg width="40" height="40" viewBox="0 0 40 40" fill="none" xmlns="http://www.w3.org/2000/svg">
<circle cx="20" cy="20" r="19.5" stroke="white"/>
<path d="M26.7414 22.8814C26.3005 21.9311 25.763 21.0287 25.1375 20.1884C25.763 19.3481 26.3005 18.4457 26.7414 17.4955C27.5524 15.6939 27.5859 14.2923 26.8359 13.54C26.0859 12.7876 24.682 12.8236 22.8805 13.6345C21.9302 14.0754 21.0278 14.6129 20.1875 15.2384C19.3472 14.6129 18.4448 14.0754 17.4945 13.6345C15.693 12.8236 14.2883 12.79 13.5391 13.54C12.7899 14.29 12.8227 15.6939 13.6336 17.4955C14.0745 18.4457 14.612 19.3481 15.2375 20.1884C14.612 21.0287 14.0745 21.9311 13.6336 22.8814C12.8227 24.683 12.7891 26.0845 13.5391 26.8369C13.8984 27.1962 14.4063 27.3759 15.0406 27.3759C15.7266 27.3759 16.557 27.1642 17.4945 26.7423C18.4448 26.3014 19.3472 25.764 20.1875 25.1384C21.0278 25.764 21.9302 26.3014 22.8805 26.7423C23.818 27.1642 24.6484 27.3759 25.3344 27.3759C25.9664 27.3759 26.4766 27.1962 26.8359 26.8369C27.5859 26.0876 27.5524 24.683 26.7414 22.8814ZM26.3945 13.9814C27.1969 14.7845 26.6399 17.0322 24.7461 19.672C24.156 18.9208 23.5207 18.2062 22.8438 17.5322C22.1687 16.8562 21.453 16.2219 20.7008 15.633C23.3438 13.7353 25.5914 13.1783 26.3945 13.9814ZM24.3633 20.1884C23.7607 20.9688 23.1083 21.7094 22.4102 22.4056C21.7141 23.1039 20.9735 23.7563 20.193 24.3587C19.4125 23.7563 18.6718 23.1039 17.9758 22.4056C17.2777 21.7094 16.6253 20.9688 16.0227 20.1884C17.2312 18.6288 18.6304 17.2267 20.1875 16.015C20.9672 16.6181 21.7075 17.2705 22.4039 17.9681C23.1032 18.6653 23.7566 19.4069 24.3602 20.1884H24.3633ZM13.9805 13.9814C14.2188 13.747 14.5828 13.6259 15.0461 13.6259C16.1484 13.6259 17.8125 14.297 19.6703 15.6298C18.1658 16.8101 16.8089 18.1673 15.6289 19.672C13.7352 17.0322 13.1781 14.7845 13.9805 13.9814ZM13.9805 26.3955C13.1781 25.5923 13.7352 23.3486 15.6289 20.7048C16.219 21.4561 16.8543 22.1707 17.5313 22.8447C18.2063 23.5207 18.922 24.1549 19.6742 24.7439C17.0313 26.6408 14.7836 27.1978 13.9805 26.3955ZM26.3945 26.3955C25.5914 27.1978 23.3477 26.6408 20.7039 24.747C21.4552 24.157 22.1698 23.5217 22.8438 22.8447C23.5198 22.1696 24.154 21.4539 24.743 20.7017C26.6399 23.3447 27.1969 25.5923 26.3945 26.3955ZM20.8125 20.1884C20.8125 20.312 20.7759 20.4329 20.7072 20.5357C20.6385 20.6384 20.5409 20.7185 20.4267 20.7658C20.3125 20.8132 20.1868 20.8255 20.0656 20.8014C19.9443 20.7773 19.833 20.7178 19.7456 20.6304C19.6582 20.543 19.5986 20.4316 19.5745 20.3104C19.5504 20.1891 19.5628 20.0634 19.6101 19.9492C19.6574 19.835 19.7375 19.7374 19.8403 19.6688C19.9431 19.6001 20.0639 19.5634 20.1875 19.5634C20.3533 19.5634 20.5122 19.6293 20.6295 19.7465C20.7467 19.8637 20.8125 20.0227 20.8125 20.1884Z" fill="white"/>
</svg>
