<svg width="40" height="40" viewBox="0 0 40 40" fill="none" xmlns="http://www.w3.org/2000/svg">
<circle cx="20" cy="20" r="19.5" stroke="white"/>
<path d="M25.125 18.3125C25.125 18.3954 25.0921 18.4749 25.0335 18.5335C24.9749 18.5921 24.8954 18.625 24.8125 18.625H21.6875C21.6046 18.625 21.5251 18.5921 21.4665 18.5335C21.4079 18.4749 21.375 18.3954 21.375 18.3125C21.375 18.2296 21.4079 18.1501 21.4665 18.0915C21.5251 18.0329 21.6046 18 21.6875 18H24.8125C24.8954 18 24.9749 18.0329 25.0335 18.0915C25.0921 18.1501 25.125 18.2296 25.125 18.3125ZM24.8125 20.5H21.6875C21.6046 20.5 21.5251 20.5329 21.4665 20.5915C21.4079 20.6501 21.375 20.7296 21.375 20.8125C21.375 20.8954 21.4079 20.9749 21.4665 21.0335C21.5251 21.0921 21.6046 21.125 21.6875 21.125H24.8125C24.8954 21.125 24.9749 21.0921 25.0335 21.0335C25.0921 20.9749 25.125 20.8954 25.125 20.8125C25.125 20.7296 25.0921 20.6501 25.0335 20.5915C24.9749 20.5329 24.8954 20.5 24.8125 20.5ZM27.625 13.9375V25.1875C27.625 25.4361 27.5262 25.6746 27.3504 25.8504C27.1746 26.0262 26.9361 26.125 26.6875 26.125H12.9375C12.6889 26.125 12.4504 26.0262 12.2746 25.8504C12.0988 25.6746 12 25.4361 12 25.1875V13.9375C12 13.6889 12.0988 13.4504 12.2746 13.2746C12.4504 13.0988 12.6889 13 12.9375 13H26.6875C26.9361 13 27.1746 13.0988 27.3504 13.2746C27.5262 13.4504 27.625 13.6889 27.625 13.9375ZM27 13.9375C27 13.8546 26.9671 13.7751 26.9085 13.7165C26.8499 13.6579 26.7704 13.625 26.6875 13.625H12.9375C12.8546 13.625 12.7751 13.6579 12.7165 13.7165C12.6579 13.7751 12.625 13.8546 12.625 13.9375V25.1875C12.625 25.2704 12.6579 25.3499 12.7165 25.4085C12.7751 25.4671 12.8546 25.5 12.9375 25.5H26.6875C26.7704 25.5 26.8499 25.4671 26.9085 25.4085C26.9671 25.3499 27 25.2704 27 25.1875V13.9375ZM20.1148 22.6094C20.1269 22.6496 20.1307 22.6919 20.126 22.7337C20.1214 22.7755 20.1083 22.8159 20.0877 22.8525C20.067 22.8891 20.0392 22.9212 20.0058 22.9468C19.9725 22.9724 19.9344 22.991 19.8937 23.0016C19.853 23.0121 19.8105 23.0143 19.769 23.008C19.7274 23.0018 19.6875 22.9872 19.6517 22.9652C19.6159 22.9431 19.5849 22.9141 19.5606 22.8798C19.5363 22.8455 19.5191 22.8067 19.5102 22.7656C19.2703 21.8281 18.3281 21.125 17.3125 21.125C16.2969 21.125 15.3594 21.8281 15.1148 22.7656C15.0975 22.8327 15.0584 22.8921 15.0037 22.9345C14.949 22.9769 14.8817 22.9999 14.8125 23C14.7861 23 14.7599 22.9966 14.7344 22.9898C14.6542 22.9691 14.5856 22.9173 14.5435 22.846C14.5015 22.7747 14.4895 22.6896 14.5102 22.6094C14.6216 22.2018 14.8227 21.8243 15.0989 21.5044C15.3751 21.1846 15.7192 20.9306 16.1062 20.7609C15.714 20.5016 15.4157 20.1228 15.2556 19.6807C15.0956 19.2386 15.0822 18.7566 15.2176 18.3063C15.353 17.856 15.6299 17.4613 16.0072 17.1807C16.3846 16.9001 16.8423 16.7486 17.3125 16.7486C17.7827 16.7486 18.2404 16.9001 18.6178 17.1807C18.9951 17.4613 19.272 17.856 19.4074 18.3063C19.5428 18.7566 19.5294 19.2386 19.3694 19.6807C19.2093 20.1228 18.911 20.5016 18.5188 20.7609C18.906 20.9302 19.2504 21.1841 19.5266 21.504C19.8028 21.8239 20.0038 22.2016 20.1148 22.6094ZM17.3125 20.5C17.6215 20.5 17.9236 20.4084 18.1806 20.2367C18.4375 20.065 18.6378 19.821 18.7561 19.5354C18.8743 19.2499 18.9053 18.9358 18.845 18.6327C18.7847 18.3296 18.6359 18.0512 18.4174 17.8326C18.1988 17.6141 17.9204 17.4653 17.6173 17.405C17.3142 17.3447 17.0001 17.3757 16.7146 17.4939C16.429 17.6122 16.185 17.8125 16.0133 18.0694C15.8416 18.3264 15.75 18.6285 15.75 18.9375C15.75 19.3519 15.9146 19.7493 16.2076 20.0424C16.5007 20.3354 16.8981 20.5 17.3125 20.5Z" fill="white"/>
</svg>
