<svg width="40" height="40" viewBox="0 0 40 40" fill="none" xmlns="http://www.w3.org/2000/svg">
<circle cx="20" cy="20" r="19.5" stroke="white"/>
<path d="M26.6875 13H15.4375C15.1889 13 14.9504 13.0988 14.7746 13.2746C14.5988 13.4504 14.5 13.6889 14.5 13.9375V15.5H12.9375C12.6889 15.5 12.4504 15.5988 12.2746 15.7746C12.0988 15.9504 12 16.1889 12 16.4375V25.1875C12 25.4361 12.0988 25.6746 12.2746 25.8504C12.4504 26.0262 12.6889 26.125 12.9375 26.125H24.1875C24.4361 26.125 24.6746 26.0262 24.8504 25.8504C25.0262 25.6746 25.125 25.4361 25.125 25.1875V23.625H26.6875C26.9361 23.625 27.1746 23.5262 27.3504 23.3504C27.5262 23.1746 27.625 22.9361 27.625 22.6875V13.9375C27.625 13.6889 27.5262 13.4504 27.3504 13.2746C27.1746 13.0988 26.9361 13 26.6875 13ZM12.9375 16.125H24.1875C24.2704 16.125 24.3499 16.1579 24.4085 16.2165C24.4671 16.2751 24.5 16.3546 24.5 16.4375V18H12.625V16.4375C12.625 16.3546 12.6579 16.2751 12.7165 16.2165C12.7751 16.1579 12.8546 16.125 12.9375 16.125ZM24.5 25.1875C24.5 25.2704 24.4671 25.3499 24.4085 25.4085C24.3499 25.4671 24.2704 25.5 24.1875 25.5H12.9375C12.8546 25.5 12.7751 25.4671 12.7165 25.4085C12.6579 25.3499 12.625 25.2704 12.625 25.1875V18.625H24.5V25.1875ZM27 22.6875C27 22.7704 26.9671 22.8499 26.9085 22.9085C26.8499 22.9671 26.7704 23 26.6875 23H25.125V16.4375C25.125 16.1889 25.0262 15.9504 24.8504 15.7746C24.6746 15.5988 24.4361 15.5 24.1875 15.5H15.125V13.9375C15.125 13.8546 15.1579 13.7751 15.2165 13.7165C15.2751 13.6579 15.3546 13.625 15.4375 13.625H26.6875C26.7704 13.625 26.8499 13.6579 26.9085 13.7165C26.9671 13.7751 27 13.8546 27 13.9375V22.6875Z" fill="white"/>
</svg>
