<svg width="40" height="40" viewBox="0 0 40 40" fill="none" xmlns="http://www.w3.org/2000/svg">
<circle cx="20" cy="20" r="19.5" stroke="white"/>
<path d="M19.8627 16.4252C19.1829 16.4252 18.5183 16.6268 17.953 17.0046C17.3877 17.3823 16.9471 17.9191 16.6869 18.5473C16.4267 19.1754 16.3587 19.8666 16.4913 20.5334C16.6239 21.2002 16.9513 21.8127 17.4321 22.2934C17.9128 22.7742 18.5253 23.1016 19.1921 23.2342C19.8589 23.3668 20.5501 23.2987 21.1782 23.0386C21.8063 22.7784 22.3432 22.3378 22.7209 21.7725C23.0986 21.2072 23.3002 20.5426 23.3002 19.8627C23.2992 18.9514 22.9367 18.0776 22.2923 17.4332C21.6478 16.7888 20.7741 16.4263 19.8627 16.4252ZM19.8627 22.6752C19.3065 22.6752 18.7627 22.5103 18.3002 22.2012C17.8377 21.8922 17.4772 21.453 17.2643 20.939C17.0515 20.4251 16.9958 19.8596 17.1043 19.314C17.2128 18.7685 17.4807 18.2673 17.874 17.874C18.2673 17.4807 18.7685 17.2128 19.314 17.1043C19.8596 16.9958 20.4251 17.0515 20.939 17.2643C21.453 17.4772 21.8922 17.8377 22.2012 18.3002C22.5103 18.7627 22.6752 19.3065 22.6752 19.8627C22.6752 20.6087 22.3789 21.324 21.8515 21.8515C21.324 22.3789 20.6087 22.6752 19.8627 22.6752ZM26.4198 20.137C26.4265 19.9541 26.4265 19.7719 26.4198 19.5901L27.6565 18.044C27.6872 18.0058 27.7085 17.961 27.7187 17.9131C27.7288 17.8652 27.7276 17.8156 27.7151 17.7682C27.53 17.0762 27.2539 16.4118 26.894 15.7924C26.8699 15.7499 26.8361 15.7135 26.7954 15.6864C26.7547 15.6593 26.7082 15.6421 26.6596 15.6362L24.6916 15.4174C24.5679 15.2835 24.4389 15.1545 24.3049 15.0307L24.087 13.0659C24.0811 13.0173 24.0639 12.9708 24.0367 12.9301C24.0096 12.8894 23.9733 12.8556 23.9307 12.8315C23.3121 12.4724 22.6488 12.1966 21.9581 12.0112C21.9108 11.9985 21.8612 11.9972 21.8133 12.0072C21.7654 12.0173 21.7205 12.0384 21.6823 12.069L20.137 13.3057C19.9541 13.2984 19.7719 13.2984 19.5901 13.3057L18.0424 12.069C18.0043 12.0383 17.9594 12.017 17.9115 12.0068C17.8636 11.9966 17.814 11.9979 17.7666 12.0104C17.0752 12.1956 16.4113 12.4717 15.7924 12.8315C15.7499 12.8556 15.7135 12.8894 15.6864 12.9301C15.6593 12.9708 15.6421 13.0173 15.6362 13.0659L15.4174 15.0338C15.2835 15.1576 15.1545 15.2866 15.0307 15.4206L13.0659 15.6385C13.0173 15.6444 12.9708 15.6616 12.9301 15.6887C12.8894 15.7159 12.8556 15.7522 12.8315 15.7948C12.4724 16.4133 12.1966 17.0766 12.0112 17.7674C11.9985 17.8147 11.9972 17.8643 12.0072 17.9122C12.0173 17.9601 12.0384 18.005 12.069 18.0432L13.3057 19.5885C13.2984 19.7713 13.2984 19.9536 13.3057 20.1354L12.069 21.6831C12.0383 21.7212 12.017 21.7661 12.0068 21.814C11.9966 21.8619 11.9979 21.9115 12.0104 21.9588C12.1956 22.6503 12.4717 23.3142 12.8315 23.9331C12.8556 23.9756 12.8894 24.0119 12.9301 24.0391C12.9708 24.0662 13.0173 24.0834 13.0659 24.0893L15.0338 24.3081C15.1573 24.4416 15.287 24.5713 15.4206 24.6948L15.6393 26.6635C15.6452 26.7121 15.6624 26.7586 15.6895 26.7993C15.7167 26.84 15.753 26.8738 15.7956 26.8979C16.415 27.2561 17.0791 27.5308 17.7706 27.7151C17.8178 27.7277 17.8674 27.7291 17.9153 27.719C17.9632 27.709 18.0081 27.6878 18.0463 27.6573L19.5916 26.4206C19.7745 26.4273 19.9567 26.4273 20.1385 26.4206L21.6846 27.6573C21.74 27.7017 21.8089 27.726 21.8799 27.726C21.9063 27.7259 21.9325 27.7225 21.9581 27.7159C22.6498 27.5305 23.314 27.2541 23.9331 26.894C23.9756 26.8699 24.0119 26.8361 24.0391 26.7954C24.0662 26.7547 24.0834 26.7082 24.0893 26.6596L24.3081 24.6916C24.4416 24.5682 24.5713 24.4385 24.6948 24.3049L26.6635 24.0862C26.7121 24.0803 26.7586 24.0631 26.7993 24.036C26.84 24.0088 26.8738 23.9725 26.8979 23.9299C27.2561 23.3104 27.5308 22.6464 27.7151 21.9549C27.7277 21.9076 27.7291 21.8581 27.719 21.8102C27.709 21.7622 27.6878 21.7174 27.6573 21.6791L26.4198 20.137ZM26.4331 23.4831L24.5057 23.6971C24.4288 23.7056 24.3578 23.7424 24.3065 23.8002C24.148 23.979 23.979 24.148 23.8002 24.3065C23.7424 24.3578 23.7056 24.4288 23.6971 24.5057L23.4831 26.4323C22.9969 26.701 22.4823 26.9146 21.9487 27.069L20.4346 25.8573C20.3791 25.8131 20.3102 25.7891 20.2393 25.7893H20.2206C19.9822 25.8041 19.7432 25.8041 19.5049 25.7893C19.4276 25.7846 19.3513 25.8089 19.2909 25.8573L17.7776 27.0682C17.2438 26.9144 16.7289 26.7014 16.2424 26.4331L16.0284 24.5057C16.0198 24.4288 15.9831 24.3578 15.9252 24.3065C15.7465 24.148 15.5774 23.979 15.419 23.8002C15.3676 23.7424 15.2967 23.7056 15.2198 23.6971L13.2932 23.4831C13.0245 22.9969 12.8109 22.4823 12.6565 21.9487L13.8682 20.4346C13.9166 20.3741 13.9408 20.2979 13.9362 20.2206C13.9221 19.9822 13.9221 19.7433 13.9362 19.5049C13.9408 19.4276 13.9166 19.3513 13.8682 19.2909L12.6573 17.7776C12.8111 17.2438 13.0241 16.7289 13.2924 16.2424L15.2198 16.0284C15.2967 16.0198 15.3676 15.9831 15.419 15.9252C15.5774 15.7465 15.7465 15.5774 15.9252 15.419C15.9831 15.3676 16.0198 15.2967 16.0284 15.2198L16.2424 13.2932C16.7286 13.0245 17.2432 12.8109 17.7768 12.6565L19.2909 13.8682C19.3513 13.9166 19.4276 13.9408 19.5049 13.9362C19.7432 13.9213 19.9822 13.9213 20.2206 13.9362C20.2979 13.9408 20.3741 13.9166 20.4346 13.8682L21.9479 12.6573C22.4817 12.8111 22.9966 13.0241 23.4831 13.2924L23.6971 15.2198C23.7056 15.2967 23.7424 15.3676 23.8002 15.419C23.979 15.5774 24.148 15.7465 24.3065 15.9252C24.3578 15.9831 24.4288 16.0198 24.5057 16.0284L26.4323 16.2424C26.701 16.7286 26.9146 17.2432 27.069 17.7768L25.8573 19.2909C25.8089 19.3513 25.7846 19.4276 25.7893 19.5049C25.8034 19.7433 25.8034 19.9822 25.7893 20.2206C25.7846 20.2979 25.8089 20.3741 25.8573 20.4346L27.0682 21.9479C26.9144 22.4817 26.7014 22.9966 26.4331 23.4831Z" fill="white"/>
</svg>
