<svg width="40" height="40" viewBox="0 0 40 40" fill="none" xmlns="http://www.w3.org/2000/svg">
<circle cx="20" cy="20" r="19.5" stroke="white"/>
<path d="M26.0625 13H13.5625C13.1481 13 12.7507 13.1646 12.4576 13.4576C12.1646 13.7507 12 14.1481 12 14.5625V23.3125C12 23.7269 12.1646 24.1243 12.4576 24.4174C12.7507 24.7104 13.1481 24.875 13.5625 24.875H19.5V26.75H17.3125C17.2296 26.75 17.1501 26.7829 17.0915 26.8415C17.0329 26.9001 17 26.9796 17 27.0625C17 27.1454 17.0329 27.2249 17.0915 27.2835C17.1501 27.3421 17.2296 27.375 17.3125 27.375H22.3125C22.3954 27.375 22.4749 27.3421 22.5335 27.2835C22.5921 27.2249 22.625 27.1454 22.625 27.0625C22.625 26.9796 22.5921 26.9001 22.5335 26.8415C22.4749 26.7829 22.3954 26.75 22.3125 26.75H20.125V24.875H26.0625C26.4769 24.875 26.8743 24.7104 27.1674 24.4174C27.4604 24.1243 27.625 23.7269 27.625 23.3125V14.5625C27.625 14.1481 27.4604 13.7507 27.1674 13.4576C26.8743 13.1646 26.4769 13 26.0625 13ZM13.5625 13.625H26.0625C26.3111 13.625 26.5496 13.7238 26.7254 13.8996C26.9012 14.0754 27 14.3139 27 14.5625V21.125H12.625V14.5625C12.625 14.3139 12.7238 14.0754 12.8996 13.8996C13.0754 13.7238 13.3139 13.625 13.5625 13.625ZM26.0625 24.25H13.5625C13.3139 24.25 13.0754 24.1512 12.8996 23.9754C12.7238 23.7996 12.625 23.5611 12.625 23.3125V21.75H27V23.3125C27 23.5611 26.9012 23.7996 26.7254 23.9754C26.5496 24.1512 26.3111 24.25 26.0625 24.25Z" fill="white"/>
</svg>
