<svg width="40" height="40" viewBox="0 0 40 40" fill="none" xmlns="http://www.w3.org/2000/svg">
<circle cx="20" cy="20" r="19.5" stroke="white"/>
<path d="M25.3633 14.3071C24.272 13.2089 22.8792 12.4595 21.3614 12.1539C19.8437 11.8482 18.2694 12.0001 16.8381 12.5902C15.4068 13.1803 14.1829 14.1821 13.3216 15.4685C12.4603 16.755 12.0003 18.2682 12 19.8164V24.1914C12 24.6058 12.1646 25.0033 12.4576 25.2963C12.7507 25.5893 13.1481 25.7539 13.5625 25.7539H14.8125C15.2269 25.7539 15.6243 25.5893 15.9174 25.2963C16.2104 25.0033 16.375 24.6058 16.375 24.1914V21.0664C16.375 20.652 16.2104 20.2546 15.9174 19.9616C15.6243 19.6686 15.2269 19.5039 14.8125 19.5039H12.6313C12.7118 17.6535 13.5036 15.9055 14.8415 14.6246C16.1795 13.3437 17.9603 12.6288 19.8125 12.6289H19.8672C21.7114 12.638 23.4811 13.3576 24.8084 14.6381C26.1357 15.9185 26.9184 17.6612 26.9937 19.5039H24.8125C24.3981 19.5039 24.0007 19.6686 23.7076 19.9616C23.4146 20.2546 23.25 20.652 23.25 21.0664V24.1914C23.25 24.6058 23.4146 25.0033 23.7076 25.2963C24.0007 25.5893 24.3981 25.7539 24.8125 25.7539H27V26.0664C27 26.3537 26.9434 26.6382 26.8335 26.9036C26.7236 27.169 26.5624 27.4101 26.3593 27.6132C26.1562 27.8164 25.915 27.9775 25.6496 28.0874C25.3842 28.1974 25.0998 28.2539 24.8125 28.2539H20.4375C20.3546 28.2539 20.2751 28.2869 20.2165 28.3455C20.1579 28.4041 20.125 28.4836 20.125 28.5664C20.125 28.6493 20.1579 28.7288 20.2165 28.7874C20.2751 28.846 20.3546 28.8789 20.4375 28.8789H24.8125C25.5584 28.8789 26.2738 28.5826 26.8012 28.0552C27.3287 27.5277 27.625 26.8124 27.625 26.0664V19.8164C27.6289 18.7945 27.4311 17.7818 27.043 16.8364C26.6549 15.891 26.0841 15.0315 25.3633 14.3071ZM14.8125 20.1289C15.0611 20.1289 15.2996 20.2277 15.4754 20.4035C15.6512 20.5793 15.75 20.8178 15.75 21.0664V24.1914C15.75 24.4401 15.6512 24.6785 15.4754 24.8543C15.2996 25.0302 15.0611 25.1289 14.8125 25.1289H13.5625C13.3139 25.1289 13.0754 25.0302 12.8996 24.8543C12.7238 24.6785 12.625 24.4401 12.625 24.1914V20.1289H14.8125ZM23.875 24.1914V21.0664C23.875 20.8178 23.9738 20.5793 24.1496 20.4035C24.3254 20.2277 24.5639 20.1289 24.8125 20.1289H27V25.1289H24.8125C24.5639 25.1289 24.3254 25.0302 24.1496 24.8543C23.9738 24.6785 23.875 24.4401 23.875 24.1914Z" fill="white"/>
</svg>
