<svg width="40" height="40" viewBox="0 0 40 40" fill="none" xmlns="http://www.w3.org/2000/svg">
<circle cx="20" cy="20" r="19.5" stroke="white"/>
<path d="M26.6875 13H12.9375C12.6889 13 12.4504 13.0988 12.2746 13.2746C12.0988 13.4504 12 13.6889 12 13.9375V25.1875C12 25.4361 12.0988 25.6746 12.2746 25.8504C12.4504 26.0262 12.6889 26.125 12.9375 26.125H13.9836C14.0427 26.1249 14.1006 26.1081 14.1505 26.0764C14.2004 26.0447 14.2404 25.9995 14.2656 25.9461C14.5948 25.2507 15.1146 24.6632 15.7646 24.2517C16.4147 23.8402 17.1682 23.6218 17.9375 23.6218C18.7068 23.6218 19.4603 23.8402 20.1104 24.2517C20.7604 24.6632 21.2802 25.2507 21.6094 25.9461C21.6346 25.9995 21.6746 26.0447 21.7245 26.0764C21.7744 26.1081 21.8323 26.1249 21.8914 26.125H26.6875C26.9361 26.125 27.1746 26.0262 27.3504 25.8504C27.5262 25.6746 27.625 25.4361 27.625 25.1875V13.9375C27.625 13.6889 27.5262 13.4504 27.3504 13.2746C27.1746 13.0988 26.9361 13 26.6875 13ZM27 25.1875C27 25.2704 26.9671 25.3499 26.9085 25.4085C26.8499 25.4671 26.7704 25.5 26.6875 25.5H22.0844C21.5098 24.4204 20.5384 23.6061 19.375 23.2289C19.9045 22.914 20.316 22.4341 20.5462 21.8627C20.7764 21.2913 20.8127 20.6601 20.6494 20.0661C20.4862 19.4721 20.1324 18.9482 19.6424 18.5747C19.1525 18.2013 18.5535 17.999 17.9375 17.999C17.3215 17.999 16.7225 18.2013 16.2326 18.5747C15.7426 18.9482 15.3888 19.4721 15.2256 20.0661C15.0623 20.6601 15.0986 21.2913 15.3288 21.8627C15.559 22.4341 15.9705 22.914 16.5 23.2289C15.3366 23.6061 14.3652 24.4204 13.7906 25.5H12.9375C12.8546 25.5 12.7751 25.4671 12.7165 25.4085C12.6579 25.3499 12.625 25.2704 12.625 25.1875V13.9375C12.625 13.8546 12.6579 13.7751 12.7165 13.7165C12.7751 13.6579 12.8546 13.625 12.9375 13.625H26.6875C26.7704 13.625 26.8499 13.6579 26.9085 13.7165C26.9671 13.7751 27 13.8546 27 13.9375V25.1875ZM17.9375 23C17.5049 23 17.0819 22.8717 16.7222 22.6313C16.3625 22.391 16.0821 22.0493 15.9165 21.6496C15.7509 21.2499 15.7076 20.8101 15.792 20.3857C15.8764 19.9614 16.0848 19.5716 16.3907 19.2657C16.6966 18.9598 17.0864 18.7514 17.5107 18.667C17.9351 18.5826 18.3749 18.6259 18.7746 18.7915C19.1743 18.9571 19.516 19.2375 19.7563 19.5972C19.9967 19.9569 20.125 20.3799 20.125 20.8125C20.125 21.0998 20.0684 21.3842 19.9585 21.6496C19.8486 21.915 19.6874 22.1562 19.4843 22.3593C19.2812 22.5624 19.04 22.7236 18.7746 22.8335C18.5092 22.9434 18.2248 23 17.9375 23ZM25.125 15.8125V23.3125C25.125 23.3954 25.0921 23.4749 25.0335 23.5335C24.9749 23.5921 24.8954 23.625 24.8125 23.625H23.5625C23.4796 23.625 23.4001 23.5921 23.3415 23.5335C23.2829 23.4749 23.25 23.3954 23.25 23.3125C23.25 23.2296 23.2829 23.1501 23.3415 23.0915C23.4001 23.0329 23.4796 23 23.5625 23H24.5V16.125H15.125V17.0625C15.125 17.1454 15.0921 17.2249 15.0335 17.2835C14.9749 17.3421 14.8954 17.375 14.8125 17.375C14.7296 17.375 14.6501 17.3421 14.5915 17.2835C14.5329 17.2249 14.5 17.1454 14.5 17.0625V15.8125C14.5 15.7296 14.5329 15.6501 14.5915 15.5915C14.6501 15.5329 14.7296 15.5 14.8125 15.5H24.8125C24.8954 15.5 24.9749 15.5329 25.0335 15.5915C25.0921 15.6501 25.125 15.7296 25.125 15.8125Z" fill="white"/>
</svg>
