<svg width="24" height="24" viewBox="0 0 24 24" fill="none" xmlns="http://www.w3.org/2000/svg">
<path d="M19.8971 9.39739L12.3971 16.8974C12.2917 17.0027 12.1487 17.0619 11.9996 17.0619C11.8506 17.0619 11.7076 17.0027 11.6021 16.8974L4.10214 9.39739C4.00278 9.29075 3.94869 9.14972 3.95126 9.00399C3.95383 8.85827 4.01286 8.71923 4.11592 8.61617C4.21898 8.51311 4.35802 8.45407 4.50375 8.4515C4.64947 8.44893 4.79051 8.50303 4.89714 8.60239L11.9996 15.7039L19.1021 8.60239C19.2088 8.50303 19.3498 8.44893 19.4955 8.4515C19.6413 8.45407 19.7803 8.51311 19.8834 8.61617C19.9864 8.71923 20.0455 8.85827 20.048 9.00399C20.0506 9.14972 19.9965 9.29075 19.8971 9.39739Z" fill="white"/>
</svg>
