<svg width="19" height="16" viewBox="0 0 19 16" fill="none" xmlns="http://www.w3.org/2000/svg">
<path d="M18.4905 14.7232L17.3247 4.92734C17.2907 4.64842 17.1553 4.39166 16.9442 4.20569C16.7331 4.01973 16.461 3.9175 16.1795 3.91836H13.2631V3.7551C13.2631 2.75918 12.8666 1.80406 12.1609 1.09984C11.4552 0.395625 10.498 0 9.5 0C8.50197 0 7.54482 0.395625 6.8391 1.09984C6.13339 1.80406 5.73693 2.75918 5.73693 3.7551V3.91836H2.81891C2.53733 3.9175 2.26522 4.01973 2.05414 4.20569C1.84306 4.39166 1.70767 4.64842 1.67362 4.92734L0.507888 14.7232C0.488862 14.8842 0.504349 15.0473 0.553322 15.2018C0.602295 15.3563 0.683634 15.4986 0.791942 15.6194C0.900251 15.7401 1.03305 15.8365 1.18153 15.9021C1.33002 15.9677 1.49079 16.0011 1.65317 16H17.3468C17.5092 16.0011 17.67 15.9677 17.8185 15.9021C17.9669 15.8365 18.0998 15.7401 18.2081 15.6194C18.3164 15.4986 18.3977 15.3563 18.4467 15.2018C18.4957 15.0473 18.5111 14.8842 18.4921 14.7232H18.4905ZM6.7186 3.7551C6.7186 3.01899 7.01164 2.31302 7.53325 1.79252C8.05487 1.27201 8.76233 0.97959 9.5 0.97959C10.2377 0.97959 10.9451 1.27201 11.4667 1.79252C11.9884 2.31302 12.2814 3.01899 12.2814 3.7551V3.91836H6.7186V3.7551ZM17.4761 14.9632C17.4599 14.9815 17.44 14.9961 17.4177 15.0059C17.3954 15.0158 17.3712 15.0207 17.3468 15.0204H1.65317C1.62877 15.0207 1.60459 15.0158 1.58228 15.0059C1.55997 14.9961 1.54007 14.9815 1.52392 14.9632C1.50859 14.9465 1.49708 14.9267 1.49016 14.9052C1.48324 14.8836 1.48108 14.8608 1.48383 14.8383L2.65039 5.04244C2.6551 5.00161 2.67506 4.96406 2.7063 4.93727C2.73754 4.91049 2.77775 4.89645 2.81891 4.89795H16.1811C16.2223 4.89645 16.2625 4.91049 16.2937 4.93727C16.3249 4.96406 16.3449 5.00161 16.3496 5.04244L17.5162 14.8383C17.5189 14.8608 17.5168 14.8836 17.5098 14.9052C17.5029 14.9267 17.4914 14.9465 17.4761 14.9632Z" fill="white"/>
</svg>
